<?xml version="1.0" encoding="UTF-8"?>
<svg version="1.1" xmlns="http://www.w3.org/2000/svg" width="900" height="350">
<path d="M0 0 C2.14550269 0.01611324 4.28912304 0.00001681 6.43457031 -0.01904297 C32.13995847 -0.05989519 56.67238799 8.05954993 75.14550781 26.39111328 C76.03238281 27.23673828 76.91925781 28.08236328 77.83300781 28.95361328 C78.59613281 29.75798828 79.35925781 30.56236328 80.14550781 31.39111328 C80.65210938 31.90287109 81.15871094 32.41462891 81.68066406 32.94189453 C92.1428103 44.07133027 101.10785198 60.1781601 103.14550781 75.39111328 C97.30713102 77.8762004 91.24693243 79.14788255 85.08300781 80.57861328 C83.89900391 80.86414063 82.715 81.14966797 81.49511719 81.44384766 C80.35751953 81.70875 79.21992188 81.97365234 78.04785156 82.24658203 C77.01136475 82.49045654 75.97487793 82.73433105 74.90698242 82.9855957 C72.19469164 83.38389072 70.6440085 83.49338259 68.14550781 82.39111328 C66.99328204 80.05348247 66.11134128 77.90026456 65.27050781 75.45361328 C62.84992248 68.94997383 60.07512351 63.14661102 56.14550781 57.39111328 C55.63503906 56.62283203 55.12457031 55.85455078 54.59863281 55.06298828 C44.95480723 41.56163246 30.03968717 35.19655159 14.14550781 32.39111328 C9.71811441 31.98496937 5.33959784 31.91240767 0.89550781 31.95361328 C-0.28180908 31.96263672 -1.45912598 31.97166016 -2.67211914 31.98095703 C-24.13820855 32.40477507 -42.33611824 39.45066238 -57.95605469 54.40283203 C-77.70100024 75.02448367 -82.53417502 106.39290898 -82.2590332 133.79907227 C-81.57217997 160.31957077 -76.37547397 187.64503042 -58.85449219 208.39111328 C-58.02498047 209.39078125 -58.02498047 209.39078125 -57.17871094 210.41064453 C-49.28288993 219.09016986 -37.78966341 224.60255002 -26.85449219 228.39111328 C-25.95472656 228.71080078 -25.05496094 229.03048828 -24.12792969 229.35986328 C-3.77147495 235.28573151 19.27085893 232.28565347 37.78613281 222.50439453 C55.81702885 211.16170295 65.45333397 193.47625453 71.20019531 173.49658203 C72.14550781 170.39111328 72.14550781 170.39111328 73.14550781 169.39111328 C80.50282644 169.88463827 87.44986396 171.52039384 94.58300781 173.32861328 C95.67033203 173.59351563 96.75765625 173.85841797 97.87792969 174.13134766 C98.91369141 174.39109375 99.94945312 174.65083984 101.01660156 174.91845703 C102.42317017 175.27025024 102.42317017 175.27025024 103.8581543 175.62915039 C106.14550781 176.39111328 106.14550781 176.39111328 108.14550781 178.39111328 C98.49462874 209.71991391 83.82078863 235.98877625 54.14550781 252.39111328 C36.99561846 261.3347449 19.5651234 263.79344753 0.52050781 263.70361328 C-0.67703629 263.70087906 -0.67703629 263.70087906 -1.89877319 263.6980896 C-32.80642294 263.57907237 -60.15793283 255.8689121 -82.97949219 233.76611328 C-110.05318491 206.3990456 -119.11863457 164.81462058 -119.03588867 127.58227539 C-118.63032942 93.65048461 -109.26627648 61.3238864 -86.85449219 35.39111328 C-86.19835937 34.63185547 -85.54222656 33.87259766 -84.86621094 33.09033203 C-72.77597637 20.17164456 -56.39283762 11.75895685 -39.85449219 6.07861328 C-39.19223633 5.84819336 -38.52998047 5.61777344 -37.84765625 5.38037109 C-25.4446386 1.36780339 -12.97433833 -0.11526178 0 0 Z " fill="#00EAFF" transform="translate(158.8544921875,27.60888671875)"/>
<path d="M0 0 C1.2684375 -0.01611328 2.536875 -0.03222656 3.84375 -0.04882812 C26.63932396 -0.06045852 46.11698202 7.69997826 62.46484375 23.5078125 C81.79272012 42.97122798 87.47563006 67.84337234 87.5 94.5625 C87.50100708 95.32372162 87.50201416 96.08494324 87.50305176 96.86923218 C87.48071549 121.80866237 83.78890301 145.6082567 67.25 165.3125 C66.528125 166.3025 65.80625 167.2925 65.0625 168.3125 C53.01092039 182.38563491 33.03303984 190.22480044 15.25 193.3125 C-13.81540501 194.99829349 -38.07091776 191.13648213 -60.73046875 171.60546875 C-80.03745613 153.40660868 -85.99034373 126.54782394 -86.93359375 101.0390625 C-87.56841947 73.52571572 -82.28288632 44.85396909 -62.75 24.3125 C-45.71452113 6.83617694 -23.84086147 -0.05984152 0 0 Z M-30.75 37.3125 C-31.36488281 37.76367188 -31.97976563 38.21484375 -32.61328125 38.6796875 C-45.41371438 48.72703413 -50.40607393 64.78398981 -52.75 80.3125 C-55.45433869 103.5810808 -53.82095886 129.78690962 -38.82592773 148.76953125 C-31.20901941 157.84903097 -21.32052821 163.77282123 -9.75 166.3125 C0.17083147 167.0625285 11.07077836 167.56628564 20.25 163.3125 C20.98863281 162.98378906 21.72726562 162.65507812 22.48828125 162.31640625 C34.88872826 156.12689125 44.05484246 145.57512668 49 132.75 C57.08017219 107.89613701 57.8766257 78.19421765 46.25 54.3125 C38.77821275 41.58543655 27.68030523 31.59336123 13.1484375 27.7578125 C-2.93921533 25.2861246 -17.67270322 27.24525799 -30.75 37.3125 Z " fill="#FFFFFF" transform="translate(772.75,97.6875)"/>
<path d="M0 0 C11.62044692 8.73593882 18.94948607 20.07123984 21.64924431 34.46032047 C22.78345645 43.00307071 23.2787639 51.38017308 23.22705078 60.00366211 C23.22734283 61.31283096 23.22763489 62.62199982 23.22793579 63.97084045 C23.2285017 67.50708684 23.21687333 71.04319317 23.20278788 74.57940745 C23.19015109 78.29491991 23.18909995 82.01043677 23.18673706 85.72596741 C23.18055987 92.73785983 23.16420086 99.74968871 23.14403808 106.76155335 C23.12156088 114.754485 23.11065615 122.74741993 23.10064721 130.7403754 C23.07983057 147.16029316 23.04320233 163.58012356 23 180 C12.44 180 1.88 180 -9 180 C-9.01981934 176.45386963 -9.03963867 172.90773926 -9.06005859 169.25415039 C-9.1272318 157.48358391 -9.20477106 145.71310089 -9.28752708 133.94263554 C-9.33740908 126.81244561 -9.3838522 119.6822658 -9.421875 112.55200195 C-9.45506832 106.32909475 -9.49504455 100.10627218 -9.54279006 93.88345903 C-9.56778708 90.59594691 -9.58863025 87.30849814 -9.60334396 84.02092171 C-8.77009163 55.728633 -8.77009163 55.728633 -18.125 29.75 C-27.34560665 20.93028929 -37.28143747 18.5633948 -49.66064453 18.64086914 C-62.70336944 18.94019805 -73.2548576 23.42913376 -83 32 C-97.31906048 49.02129563 -95.31249566 74.84206091 -95.4140625 95.625 C-95.4328088 98.06836577 -95.45238468 100.5117253 -95.4727478 102.95507812 C-95.52370959 109.33349908 -95.56352601 115.71194094 -95.60089111 122.0904541 C-95.64115822 128.62024961 -95.69214607 135.14996087 -95.7421875 141.6796875 C-95.83852022 154.45307121 -95.92206639 167.22649077 -96 180 C-106.56 180 -117.12 180 -128 180 C-128 118.62 -128 57.24 -128 -6 C-118.43 -6 -108.86 -6 -99 -6 C-98.67 1.26 -98.34 8.52 -98 16 C-96.1746875 13.8034375 -96.1746875 13.8034375 -94.3125 11.5625 C-71.2963872 -13.86688284 -28.80542052 -18.18013918 0 0 Z " fill="#FFFFFF" transform="translate(629,108)"/>
<path d="M0 0 C1.2684375 0.8353125 1.2684375 0.8353125 2.5625 1.6875 C1.50433563 7.69699754 -0.69693005 13.23349495 -2.8125 18.9375 C-3.21210938 20.05125 -3.61171875 21.165 -4.0234375 22.3125 C-4.4153125 23.36953125 -4.8071875 24.4265625 -5.2109375 25.515625 C-5.56591309 26.4840332 -5.92088867 27.45244141 -6.28662109 28.45019531 C-7.4375 30.6875 -7.4375 30.6875 -10.4375 31.6875 C-12.36111491 30.94315736 -14.2532706 30.11658488 -16.125 29.25 C-24.73289374 25.82029234 -33.38201328 25.01564171 -42.39453125 27.50390625 C-50.35410381 31.01296512 -56.29178956 37.44069077 -59.75 45.375 C-64.12371896 57.78010554 -65.56764272 70.63342872 -65.64282227 83.69335938 C-65.65272186 84.76742035 -65.66262146 85.84148132 -65.67282104 86.9480896 C-65.70424831 90.4757878 -65.72911884 94.00349943 -65.75390625 97.53125 C-65.77449201 99.98604673 -65.79548889 102.44084004 -65.81687927 104.89562988 C-65.87193246 111.33993759 -65.92141531 117.78427639 -65.96972656 124.2286377 C-66.02006427 130.81130727 -66.07568615 137.39393199 -66.13085938 143.9765625 C-66.23823591 156.88017134 -66.33923739 169.78381853 -66.4375 182.6875 C-76.9975 182.6875 -87.5575 182.6875 -98.4375 182.6875 C-98.4375 121.3075 -98.4375 59.9275 -98.4375 -3.3125 C-88.8675 -3.3125 -79.2975 -3.3125 -69.4375 -3.3125 C-69.1075 4.2775 -68.7775 11.8675 -68.4375 19.6875 C-67.4475 18.058125 -66.4575 16.42875 -65.4375 14.75 C-49.92161398 -9.50723025 -25.02287595 -13.90713623 0 0 Z " fill="#00EAFF" transform="translate(480.4375,105.3125)"/>
<path d="M0 0 C10.56 0 21.12 0 32 0 C32 61.38 32 122.76 32 186 C21.44 186 10.88 186 0 186 C0 124.62 0 63.24 0 0 Z " fill="#00EAFF" transform="translate(303,102)"/>
<path d="M0 0 C10.56 0 21.12 0 32 0 C32 11.88 32 23.76 32 36 C21.44 36 10.88 36 0 36 C0 24.12 0 12.24 0 0 Z " fill="#00EAFF" transform="translate(303,32)"/>
</svg>
